
<svg width="100" height="100" viewBox="0 0 100 100" xmlns="http://www.w3.org/2000/svg">
  <path d="M0 0h100v100H0z" fill="none"/>
  <path d="M95 50.5a44.5 44.5 0 1 1-89 0 44.5 44.5 0 0 1 89 0" stroke="white" stroke-width="0.25" fill="none" opacity="0.2"/>
  <path d="M85 50.5a34.5 34.5 0 1 1-69 0 34.5 34.5 0 0 1 69 0" stroke="white" stroke-width="0.25" fill="none" opacity="0.2"/>
  <path d="M75 50.5a24.5 24.5 0 1 1-49 0 24.5 24.5 0 0 1 49 0" stroke="white" stroke-width="0.25" fill="none" opacity="0.2"/>
  <path d="M65 50.5a14.5 14.5 0 1 1-29 0 14.5 14.5 0 0 1 29 0" stroke="white" stroke-width="0.25" fill="none" opacity="0.2"/>
</svg>
